<svg xmlns="http://www.w3.org/2000/svg" width="27.976" height="27.976" viewBox="0 0 27.976 27.976">
    <defs>
        <style>
            .cls-1{fill:none;stroke:#ba2e3b;stroke-linecap:round;stroke-linejoin:round;stroke-width:2px}
        </style>
    </defs>
    <g id="Icon_feather-instagram" data-name="Icon feather-instagram" transform="translate(1 1)">
        <path id="Caminho_39" data-name="Caminho 39" class="cls-1" d="M9.494 3h12.988a6.494 6.494 0 0 1 6.494 6.494v12.988a6.494 6.494 0 0 1-6.494 6.494H9.494A6.494 6.494 0 0 1 3 22.482V9.494A6.494 6.494 0 0 1 9.494 3z" transform="translate(-3 -3)"/>
        <path id="Caminho_40" data-name="Caminho 40" class="cls-1" d="M22.4 16.368a5.2 5.2 0 1 1-4.377-4.377 5.2 5.2 0 0 1 4.377 4.377z" transform="translate(-4.216 -4.198)"/>
        <path id="Caminho_41" data-name="Caminho 41" class="cls-1" d="M26.25 9.75h0" transform="translate(-6.119 -3.905)"/>
    </g>
</svg>
