<svg xmlns="http://www.w3.org/2000/svg" width="25.976" height="25.976" viewBox="0 0 25.976 25.976">
    <path data-name="Icon simple-whatsapp" d="M18.939 15.566c-.326-.162-1.912-.938-2.208-1.046s-.512-.162-.728.162-.834 1.043-1.022 1.258-.378.227-.7.081a8.784 8.784 0 0 1-2.6-1.607 9.819 9.819 0 0 1-1.8-2.24c-.188-.325-.021-.5.141-.666.147-.146.326-.373.488-.566a2.744 2.744 0 0 0 .321-.537.6.6 0 0 0-.027-.567c-.081-.162-.727-1.753-1-2.388s-.522-.55-.722-.55c-.186-.016-.4-.016-.618-.016a1.22 1.22 0 0 0-.863.389A3.613 3.613 0 0 0 6.47 9.95a6.333 6.333 0 0 0 1.32 3.328 14.432 14.432 0 0 0 5.52 4.854c.773.325 1.375.52 1.844.681a4.478 4.478 0 0 0 2.035.131A3.331 3.331 0 0 0 19.37 17.4a2.679 2.679 0 0 0 .195-1.542c-.08-.146-.292-.227-.617-.373m-5.894 8.056h-.017a10.827 10.827 0 0 1-5.471-1.494l-.39-.232-4.059 1.056L4.2 18.926l-.259-.406A10.735 10.735 0 0 1 20.665 5.277a10.594 10.594 0 0 1 3.148 7.565 10.748 10.748 0 0 1-10.753 10.7m9.149-19.809A13.142 13.142 0 0 0 13.037 0a12.869 12.869 0 0 0-11.2 19.307L0 25.976l6.857-1.788a13.055 13.055 0 0 0 6.18 1.566h.006a12.923 12.923 0 0 0 12.933-12.875 12.765 12.765 0 0 0-3.783-9.1" style="fill:#ba2e3b"/>
</svg>
